<?xml version="1.0" encoding="utf-8"?>
<!-- Generator: Adobe Illustrator 16.0.0, SVG Export Plug-In . SVG Version: 6.00 Build 0)  -->
<!DOCTYPE svg PUBLIC "-//W3C//DTD SVG 1.1//EN" "http://www.w3.org/Graphics/SVG/1.1/DTD/svg11.dtd">
<svg version="1.1" id="Layer_1" xmlns="http://www.w3.org/2000/svg" xmlns:xlink="http://www.w3.org/1999/xlink" x="0px" y="0px"
	 width="344px" height="316px" viewBox="0 0 344 316" enable-background="new 0 0 344 316" xml:space="preserve">
<path fill="#118CE4" d="M177,21.04C98.152,21.04,33.641,75.248,33.641,142c0,35.84,18.815,69.439,50.623,92.288L70.376,269.68
	c-2.688,7.168-0.896,15.232,4.929,20.16c6.737,5.771,13.497,5.286,20.607,2.24l55.104-30.912c8.514,1.344,17.024,1.792,25.536,1.792
	c78.85,0,143.36-54.208,143.36-120.96C320.36,75.248,255.848,21.04,177,21.04z M177,245.04c-9.855,0-19.712-0.896-29.12-2.688
	L87.4,276.4l18.815-49.28C73.064,208.752,51.561,177.393,51.561,142C51.561,85.104,107.56,38.96,177,38.96S302.44,85.104,302.44,142
	S246.44,245.04,177,245.04z M109.8,137.52h134.4v8.961H109.8V137.52z M109.8,164.4H199.4v8.959H109.8V164.4z M109.8,110.641h134.4
	v8.959H109.8V110.641z"/>
</svg>
