<?xml version="1.0" encoding="utf-8"?>
<!-- Generator: Adobe Illustrator 16.0.0, SVG Export Plug-In . SVG Version: 6.00 Build 0)  -->
<!DOCTYPE svg PUBLIC "-//W3C//DTD SVG 1.1//EN" "http://www.w3.org/Graphics/SVG/1.1/DTD/svg11.dtd">
<svg version="1.1" id="Layer_1" xmlns="http://www.w3.org/2000/svg" xmlns:xlink="http://www.w3.org/1999/xlink" x="0px" y="0px"
	 width="344px" height="316px" viewBox="302.5 80.5 344 316" enable-background="new 302.5 80.5 344 316" xml:space="preserve">
<path fill="#2979FF" d="M480,103.04c-78.848,0-143.36,54.208-143.36,120.96c0,35.84,18.816,69.439,50.624,92.288l-13.888,35.392
	c-2.688,7.168-0.896,15.232,4.928,20.16c6.738,5.771,13.498,5.286,20.608,2.24l55.104-30.912c8.513,1.344,17.024,1.792,25.536,1.792
	c78.849,0,143.36-54.208,143.36-120.96C623.36,157.248,558.848,103.04,480,103.04z M480,327.04c-9.856,0-19.712-0.896-29.12-2.688
	L390.4,358.4l18.816-49.28c-33.152-18.368-54.656-49.728-54.656-85.12c0-56.896,56-103.04,125.44-103.04S605.44,167.104,605.44,224
	C605.44,280.896,549.44,327.04,480,327.04z M412.8,219.52h134.4v8.96H412.8V219.52z M412.8,246.4H502.4v8.96H412.8V246.4z
	 M412.8,192.64h134.4v8.96H412.8V192.64z"/>
</svg>
