<?xml version="1.0" encoding="utf-8"?>
<!-- Generator: Adobe Illustrator 16.0.0, SVG Export Plug-In . SVG Version: 6.00 Build 0)  -->
<!DOCTYPE svg PUBLIC "-//W3C//DTD SVG 1.1//EN" "http://www.w3.org/Graphics/SVG/1.1/DTD/svg11.dtd">
<svg version="1.1" id="Layer_1" xmlns="http://www.w3.org/2000/svg" xmlns:xlink="http://www.w3.org/1999/xlink" x="0px" y="0px"
	 width="960px" height="560px" viewBox="0 0 960 560" enable-background="new 0 0 960 560" xml:space="preserve">
<circle fill="#208BDB" cx="480.239" cy="280.239" r="276.413"/>
<path fill="#FFFFFF" stroke="#C63636" stroke-miterlimit="10" d="M425.722,320.41"/>
<path fill="#FFFFFF" stroke="#208BDB" stroke-miterlimit="10" d="M631.836,417.489c-13.868,0-43.519-2.393-64.082-21.521
	c-11.478,2.393-23.911,3.825-35.866,3.825c-58.82,0-108.558-29.648-121.47-72.688c-0.478-1.913,0-3.35,0.957-4.782
	c0.956-1.438,2.869-2.394,4.304-1.913c0.957,0,1.437,0,2.394,0c0.956,0,1.435,0,2.391,0c62.647,0,113.817-36.823,113.817-82.255
	c0-5.738-0.956-11.477-2.869-17.694c-0.479-1.913,0-3.347,0.956-4.782c0.957-1.435,2.392-2.391,4.305-1.913
	c66.951,1.913,119.077,43.04,119.077,93.253c0,25.346-13.868,49.733-38.736,67.43c5.739,14.347,13.869,25.346,24.392,33.476
	c1.913,1.437,2.392,3.826,1.913,5.738c-0.479,1.913-2.394,3.826-4.782,3.826C639.01,417.489,636.14,417.489,631.836,417.489z"/>
<g>
	<path fill="#FFFFFF" d="M320.991,349.104c-4.304,0-7.173-0.479-7.652-0.479c-2.391,0-4.304-1.913-4.782-3.826
		c-0.478-1.912,0-4.304,1.913-5.738c10.042-8.13,18.172-19.129,24.389-33.476c-24.389-17.694-38.736-42.083-38.736-67.43
		c0-51.648,55.952-93.253,124.338-93.253c68.864,0,124.338,41.605,124.338,93.253s-55.951,93.254-124.338,93.254
		c-11.955,0-23.911-1.437-35.867-3.826C364.509,346.712,334.859,349.104,320.991,349.104z"/>
	<path fill="#208BDB" d="M320.991,356.276c-2.87,0-5.739,0-8.13-0.479c-5.26-0.479-9.564-3.826-10.999-9.087
		c-1.435-4.782,0.478-10.521,4.304-13.39c8.13-6.219,14.825-14.825,19.607-25.348c-23.433-18.65-36.823-43.519-36.823-69.821
		c0-55.474,59.3-100.427,131.511-100.427c72.69,0,131.512,44.953,131.512,100.427s-59.3,100.427-131.512,100.427
		c-11.478,0-22.477-0.956-33.476-3.348C365.465,353.407,336.772,356.276,320.991,356.276z M318.6,341.93c0.957,0,1.435,0,2.391,0
		c11.477,0,40.17-1.912,59.3-19.604l2.869-2.394l3.348,0.479c11,2.391,22.478,3.825,33.954,3.825
		c64.562,0,117.165-38.735,117.165-86.081c0-47.344-52.604-86.08-117.165-86.08c-64.56,0-117.165,38.736-117.165,86.08
		c0,22.955,12.912,45.432,35.389,61.69l4.782,3.348l-2.391,5.262C335.815,322.323,328.164,333.322,318.6,341.93z"/>
</g>
</svg>
