<?xml version="1.0" encoding="utf-8"?>
<!-- Generator: Adobe Illustrator 16.0.0, SVG Export Plug-In . SVG Version: 6.00 Build 0)  -->
<!DOCTYPE svg PUBLIC "-//W3C//DTD SVG 1.1//EN" "http://www.w3.org/Graphics/SVG/1.1/DTD/svg11.dtd">
<svg version="1.1" id="Layer_1" xmlns="http://www.w3.org/2000/svg" xmlns:xlink="http://www.w3.org/1999/xlink" x="0px" y="0px"
	 width="960px" height="560px" viewBox="0 0 960 560" enable-background="new 0 0 960 560" xml:space="preserve">
<path fill="#FFFFFF" stroke="#C63636" stroke-miterlimit="10" d="M425.722,320.41"/>
<path fill="#056699" d="M518.009,326.493v215.415c190.692,0,345.287-119.052,345.287-265.912
	c0-146.869-154.595-265.93-345.287-265.93V234.89c2.386-0.376,4.796-0.735,7.29-0.735c25.706,0,46.542,20.836,46.542,46.532
	c0,25.715-20.836,46.541-46.542,46.541C522.805,327.228,520.395,326.868,518.009,326.493 M647.095,280.687
	c0-25.696,20.835-46.532,46.541-46.532c25.705,0,46.54,20.836,46.54,46.532c0,25.715-20.835,46.541-46.54,46.541
	C667.93,327.228,647.095,306.401,647.095,280.687"/>
<path fill="#0099FF" d="M332.711,500.322c53.557,26.287,117.086,41.586,185.298,41.586V326.493
	c-22.209-3.521-39.241-22.595-39.241-45.807c0-23.202,17.032-42.276,39.241-45.797V10.066c-190.69,0-345.276,119.061-345.276,265.93
	c0,55.752,22.321,107.488,60.409,150.226c0,0-44.36,98.868-174.993,58.959C58.149,485.181,225.81,623.297,332.711,500.322
	 M356.972,327.228c-25.714,0-46.541-20.835-46.541-46.541c0-25.696,20.827-46.532,46.541-46.532c25.715,0,46.54,20.836,46.54,46.532
	C403.512,306.393,382.687,327.228,356.972,327.228"/>
</svg>
