<?xml version="1.0" encoding="utf-8"?>
<!-- Generator: Adobe Illustrator 16.0.0, SVG Export Plug-In . SVG Version: 6.00 Build 0)  -->
<!DOCTYPE svg PUBLIC "-//W3C//DTD SVG 1.1//EN" "http://www.w3.org/Graphics/SVG/1.1/DTD/svg11.dtd">
<svg version="1.1" id="Layer_1" xmlns="http://www.w3.org/2000/svg" xmlns:xlink="http://www.w3.org/1999/xlink" x="0px" y="0px"
	 width="98.75px" height="98.5px" viewBox="0 0 98.75 98.5" enable-background="new 0 0 98.75 98.5" xml:space="preserve">
<rect x="0" width="98.667" height="82.881"/>
<rect y="82.684" fill="#EF3E24" width="3.947" height="15.908"/>
<rect x="3.947" y="82.684" fill="#FFFFFF" width="3.947" height="15.908"/>
<rect x="7.894" y="82.684" fill="#4069B2" width="3.947" height="15.908"/>
<rect x="11.84" y="82.684" fill="#069948" width="3.946" height="15.908"/>
<rect x="15.787" y="82.684" fill="#F7EF6F" width="3.946" height="15.908"/>
<rect x="19.733" y="82.684" fill="#F26A36" width="3.947" height="15.908"/>
<rect x="23.68" y="82.684" fill="#221F20" width="3.948" height="15.908"/>
<rect x="27.627" y="82.684" fill="#069948" width="3.946" height="15.908"/>
<rect x="31.573" y="82.684" fill="#EF3E24" width="3.947" height="15.908"/>
<rect x="35.52" y="82.684" fill="#FFFFFF" width="3.947" height="15.908"/>
<rect x="39.467" y="82.684" fill="#026598" width="3.948" height="15.908"/>
<rect x="43.414" y="82.684" fill="#F7EF6F" width="3.947" height="15.908"/>
<rect x="47.36" y="82.684" fill="#221F20" width="3.947" height="15.908"/>
<rect x="51.308" y="82.684" fill="#F89921" width="3.946" height="15.908"/>
<rect x="55.253" y="82.684" fill="#FFFFFF" width="3.948" height="15.908"/>
<rect x="59.201" y="82.684" fill="#CB3928" width="3.947" height="15.908"/>
<rect x="63.146" y="82.684" fill="#1A3864" width="3.948" height="15.908"/>
<rect x="67.094" y="82.684" fill="#069948" width="3.946" height="15.908"/>
<rect x="71.04" y="82.684" fill="#F7EF6F" width="3.947" height="15.908"/>
<rect x="74.987" y="82.684" fill="#026598" width="3.947" height="15.908"/>
<rect x="78.934" y="82.684" fill="#EF3E24" width="3.947" height="15.908"/>
<rect x="82.881" y="82.684" fill="#4990CD" width="3.946" height="15.908"/>
<rect x="86.827" y="82.684" fill="#F89921" width="3.947" height="15.908"/>
<rect x="90.773" y="82.684" fill="#FFFFFF" width="3.947" height="15.908"/>
<rect x="94.72" y="82.684" fill="#026767" width="3.947" height="15.908"/>
<path fill="#FFFFFF" d="M14.672,13.692c-1.335,0-2.432,0.418-3.291,1.253c-0.859,0.835-1.289,1.901-1.289,3.198
	c0,1.258,0.43,2.305,1.292,3.14c0.862,0.835,1.94,1.252,3.236,1.252c1.301,0,2.388-0.426,3.258-1.278
	c0.87-0.852,1.305-1.912,1.305-3.181c0-1.236-0.435-2.275-1.305-3.118C17.01,14.114,15.94,13.692,14.672,13.692 M14.605,12.106
	c1.802,0,3.303,0.571,4.501,1.712c1.199,1.141,1.799,2.572,1.799,4.292s-0.605,3.144-1.815,4.271
	c-1.21,1.127-2.734,1.691-4.576,1.691c-1.758,0-3.222-0.564-4.394-1.691c-1.171-1.127-1.756-2.54-1.756-4.238
	c0-1.742,0.59-3.184,1.769-4.325C11.313,12.677,12.803,12.106,14.605,12.106"/>
<path fill="#FFFFFF" d="M24.595,17.675H23.52v4.726c0.466,0.24,0.956,0.359,1.467,0.359c0.711,0,1.293-0.248,1.746-0.743
	c0.453-0.496,0.679-1.133,0.679-1.913c0-0.501-0.107-0.943-0.321-1.327c-0.214-0.385-0.505-0.665-0.875-0.839
	C25.846,17.763,25.305,17.675,24.595,17.675 M21.966,27.854V16.256h2.661c1.362,0,2.423,0.339,3.181,1.018
	c0.76,0.68,1.139,1.628,1.139,2.848c0,1.152-0.357,2.099-1.071,2.839c-0.714,0.741-1.624,1.111-2.73,1.111
	c-0.489,0-1.031-0.109-1.625-0.326v4.108H21.966z"/>
<path fill="#FFFFFF" d="M31.452,19.321h3.867c-0.04-0.607-0.22-1.075-0.543-1.403c-0.323-0.328-0.757-0.493-1.303-0.493
	s-0.993,0.165-1.34,0.493C31.785,18.246,31.558,18.713,31.452,19.321 M36.822,20.23h-5.402c0.039,0.735,0.284,1.32,0.739,1.754
	c0.453,0.434,1.039,0.651,1.758,0.651c1.002,0,1.925-0.312,2.771-0.936v1.486c-0.467,0.312-0.93,0.535-1.39,0.669
	c-0.458,0.133-0.998,0.2-1.615,0.2c-0.847,0-1.531-0.175-2.054-0.526c-0.523-0.351-0.943-0.822-1.257-1.415
	c-0.315-0.593-0.471-1.279-0.471-2.059c0-1.169,0.331-2.12,0.993-2.852c0.662-0.732,1.522-1.098,2.58-1.098
	c1.019,0,1.832,0.356,2.438,1.068c0.606,0.712,0.91,1.667,0.91,2.864V20.23z"/>
<path fill="#FFFFFF" d="M39.644,16.256v0.977c0.679-0.751,1.45-1.127,2.312-1.127c0.479,0,0.924,0.124,1.337,0.372
	c0.412,0.248,0.725,0.587,0.938,1.019c0.214,0.432,0.322,1.115,0.322,2.05v4.392h-1.52v-4.375c0-0.785-0.121-1.346-0.359-1.682
	c-0.239-0.337-0.64-0.506-1.202-0.506c-0.718,0-1.328,0.359-1.829,1.078v5.485h-1.553v-7.682H39.644z"/>
<path fill="#FFFFFF" d="M15.186,33.934h3.917v4.943c-1.437,0.624-2.861,0.935-4.275,0.935c-1.932,0-3.475-0.564-4.63-1.691
	c-1.156-1.127-1.733-2.517-1.733-4.17c0-1.744,0.598-3.193,1.795-4.351c1.197-1.158,2.697-1.737,4.5-1.737
	c0.656,0,1.28,0.071,1.87,0.213c0.589,0.142,1.335,0.402,2.237,0.78v1.703c-1.391-0.806-2.772-1.211-4.141-1.211
	c-1.274,0-2.35,0.435-3.223,1.303c-0.875,0.869-1.311,1.935-1.311,3.198c0,1.326,0.437,2.407,1.311,3.249
	c0.873,0.841,1.999,1.261,3.373,1.261c0.667,0,1.466-0.153,2.396-0.459l0.159-0.05v-2.43h-2.246V33.934z"/>
<path fill="#FFFFFF" d="M24.579,33.349c-0.729,0-1.327,0.239-1.795,0.718c-0.468,0.478-0.701,1.088-0.701,1.829
	c0,0.734,0.239,1.334,0.718,1.799c0.479,0.465,1.094,0.698,1.846,0.698c0.746,0,1.357-0.236,1.833-0.706
	c0.476-0.471,0.714-1.073,0.714-1.808c0-0.729-0.248-1.334-0.743-1.812C25.955,33.588,25.331,33.349,24.579,33.349 M24.663,31.979
	c1.169,0,2.141,0.377,2.914,1.131c0.773,0.754,1.161,1.701,1.161,2.843c0,1.108-0.393,2.028-1.177,2.76
	c-0.785,0.733-1.774,1.098-2.965,1.098c-1.152,0-2.115-0.372-2.889-1.114c-0.774-0.743-1.161-1.672-1.161-2.785
	c0-1.125,0.391-2.061,1.173-2.81C22.502,32.354,23.482,31.979,24.663,31.979"/>
<polygon fill="#FFFFFF" points="34.122,31.996 35.77,31.996 32.377,39.812 31.863,39.812 28.389,31.996 30.052,31.996 
	32.125,36.722 "/>
<path fill="#FFFFFF" d="M37.758,35.061h3.866c-0.04-0.606-0.22-1.075-0.543-1.403c-0.323-0.328-0.757-0.493-1.302-0.493
	c-0.546,0-0.992,0.165-1.34,0.493C38.091,33.986,37.864,34.455,37.758,35.061 M43.126,35.97h-5.401
	c0.038,0.735,0.284,1.32,0.738,1.754c0.454,0.434,1.039,0.65,1.757,0.65c1.001,0,1.926-0.311,2.772-0.935v1.485
	c-0.468,0.313-0.931,0.536-1.39,0.669c-0.46,0.134-0.999,0.201-1.616,0.201c-0.846,0-1.531-0.176-2.054-0.526
	c-0.523-0.351-0.943-0.822-1.257-1.415c-0.315-0.593-0.472-1.279-0.472-2.058c0-1.169,0.332-2.12,0.994-2.852
	c0.662-0.732,1.521-1.098,2.58-1.098c1.019,0,1.832,0.356,2.438,1.068c0.606,0.713,0.909,1.668,0.909,2.864V35.97z"/>
<path fill="#FFFFFF" d="M46.058,31.996v1.762l0.084-0.133c0.734-1.186,1.47-1.779,2.204-1.779c0.573,0,1.172,0.29,1.795,0.869
	l-0.802,1.336c-0.528-0.501-1.018-0.752-1.469-0.752c-0.49,0-0.914,0.233-1.274,0.701c-0.358,0.468-0.538,1.021-0.538,1.662v4.016
	h-1.527v-7.682H46.058z"/>
<path fill="#FFFFFF" d="M52.379,31.996v0.977c0.679-0.751,1.45-1.127,2.312-1.127c0.479,0,0.924,0.124,1.336,0.372
	c0.412,0.247,0.725,0.587,0.939,1.019c0.214,0.432,0.322,1.114,0.322,2.05v4.392h-1.521v-4.375c0-0.785-0.12-1.346-0.358-1.684
	c-0.239-0.336-0.64-0.504-1.203-0.504c-0.718,0-1.327,0.358-1.829,1.078v5.485h-1.554v-7.682H52.379z"/>
<path fill="#FFFFFF" d="M65.022,34.101v5.577h-1.528v-4.274c0-0.852-0.115-1.446-0.343-1.784c-0.228-0.336-0.626-0.504-1.193-0.504
	c-0.319,0-0.609,0.072-0.875,0.216c-0.264,0.145-0.566,0.401-0.905,0.769v5.577h-1.521v-7.682h1.521v1.011
	c0.773-0.773,1.53-1.161,2.271-1.161c0.974,0,1.729,0.462,2.262,1.387c0.813-0.936,1.662-1.403,2.548-1.403
	c0.745,0,1.358,0.272,1.84,0.818c0.481,0.545,0.723,1.378,0.723,2.497v4.533h-1.52v-4.55c0-0.641-0.131-1.13-0.393-1.47
	c-0.262-0.34-0.637-0.509-1.127-0.509C66.155,33.149,65.567,33.466,65.022,34.101"/>
<path fill="#FFFFFF" d="M72.403,35.061h3.867c-0.039-0.606-0.22-1.075-0.543-1.403c-0.322-0.328-0.757-0.493-1.302-0.493
	c-0.546,0-0.993,0.165-1.341,0.493C72.736,33.986,72.509,34.455,72.403,35.061 M77.772,35.97H72.37
	c0.039,0.735,0.285,1.32,0.739,1.754c0.453,0.434,1.039,0.65,1.758,0.65c1.003,0,1.926-0.311,2.771-0.935v1.485
	c-0.466,0.313-0.93,0.536-1.389,0.669c-0.459,0.134-0.998,0.201-1.616,0.201c-0.847,0-1.531-0.176-2.054-0.526
	c-0.524-0.351-0.943-0.822-1.257-1.415c-0.315-0.593-0.472-1.279-0.472-2.058c0-1.169,0.332-2.12,0.993-2.852
	c0.663-0.732,1.522-1.098,2.581-1.098c1.019,0,1.831,0.356,2.438,1.068c0.605,0.713,0.909,1.668,0.909,2.864V35.97z"/>
<path fill="#FFFFFF" d="M80.253,31.996v0.977c0.679-0.751,1.451-1.127,2.313-1.127c0.479,0,0.924,0.124,1.337,0.372
	c0.411,0.247,0.724,0.587,0.938,1.019c0.215,0.432,0.322,1.114,0.322,2.05v4.392h-1.52v-4.375c0-0.785-0.12-1.346-0.359-1.684
	c-0.24-0.336-0.641-0.504-1.202-0.504c-0.718,0-1.329,0.358-1.829,1.078v5.485H78.7v-7.682H80.253z"/>
<path fill="#FFFFFF" d="M85.763,33.215l2.855-2.806v1.587h2.429v1.369h-2.429v3.759c0,0.879,0.363,1.317,1.093,1.317
	c0.547,0,1.123-0.181,1.729-0.542v1.42c-0.586,0.329-1.224,0.493-1.913,0.493c-0.696,0-1.275-0.204-1.737-0.61
	c-0.144-0.123-0.264-0.26-0.358-0.414c-0.094-0.153-0.174-0.353-0.238-0.602c-0.064-0.248-0.096-0.719-0.096-1.416v-3.407h-1.335
	V33.215z"/>
<path fill="#FFFFFF" d="M12.197,45.224h-1.729v3.648h1.829c0.68,0,1.202-0.16,1.57-0.479c0.368-0.32,0.55-0.779,0.55-1.374
	C14.417,45.822,13.678,45.224,12.197,45.224 M8.79,55.419V43.737h3.698c1.114,0,2.001,0.301,2.664,0.901
	c0.663,0.603,0.994,1.41,0.994,2.422c0,0.679-0.17,1.281-0.51,1.804c-0.339,0.523-0.804,0.904-1.394,1.141
	c-0.59,0.235-1.436,0.354-2.538,0.354h-1.236v5.062H8.79z"/>
<path fill="#FFFFFF" d="M20.534,53.899v-2.28l-1.019,0.394c-0.518,0.204-0.884,0.413-1.098,0.621
	c-0.214,0.208-0.322,0.469-0.322,0.78c0,0.317,0.102,0.576,0.305,0.776c0.204,0.201,0.466,0.301,0.789,0.301
	C19.674,54.491,20.122,54.294,20.534,53.899 M22.028,50.801v3.265c0,0.262,0.089,0.393,0.267,0.393c0.184,0,0.471-0.136,0.86-0.408
	v0.925c-0.345,0.223-0.622,0.375-0.831,0.456c-0.208,0.081-0.427,0.121-0.655,0.121c-0.652,0-1.036-0.256-1.153-0.768
	c-0.645,0.502-1.333,0.75-2.062,0.75c-0.535,0-0.98-0.176-1.336-0.529c-0.356-0.354-0.534-0.797-0.534-1.331
	c0-0.485,0.173-0.918,0.521-1.299c0.348-0.382,0.842-0.683,1.482-0.906l1.945-0.668v-0.41c0-0.922-0.462-1.385-1.386-1.385
	c-0.83,0-1.636,0.428-2.421,1.286V48.63c0.591-0.697,1.439-1.045,2.547-1.045c0.829,0,1.495,0.218,1.996,0.651
	c0.167,0.14,0.317,0.325,0.451,0.557c0.133,0.23,0.218,0.46,0.254,0.692C22.011,49.717,22.028,50.154,22.028,50.801"/>
<path fill="#FFFFFF" d="M25.786,47.736v1.762l0.083-0.133c0.734-1.186,1.469-1.779,2.204-1.779c0.574,0,1.172,0.29,1.795,0.87
	l-0.801,1.336c-0.529-0.501-1.019-0.752-1.47-0.752c-0.49,0-0.914,0.233-1.273,0.701c-0.359,0.468-0.539,1.021-0.539,1.663v4.016
	h-1.528v-7.683H25.786z"/>
<path fill="#FFFFFF" d="M30.195,48.956l2.856-2.805v1.585h2.43v1.371h-2.43v3.759c0,0.878,0.363,1.317,1.093,1.317
	c0.546,0,1.122-0.182,1.728-0.543v1.421c-0.584,0.327-1.222,0.491-1.912,0.491c-0.695,0-1.274-0.203-1.736-0.609
	c-0.145-0.122-0.265-0.261-0.359-0.414c-0.094-0.151-0.174-0.352-0.238-0.601c-0.063-0.247-0.096-0.72-0.096-1.415v-3.406h-1.336
	V48.956z"/>
<path fill="#FFFFFF" d="M38.485,47.736v0.978c0.679-0.752,1.451-1.128,2.313-1.128c0.479,0,0.924,0.124,1.336,0.372
	c0.412,0.249,0.724,0.587,0.939,1.019c0.213,0.431,0.322,1.116,0.322,2.05v4.393h-1.521v-4.376c0-0.785-0.12-1.346-0.358-1.683
	c-0.24-0.336-0.641-0.504-1.203-0.504c-0.718,0-1.328,0.358-1.829,1.076v5.487h-1.553v-7.683H38.485z"/>
<path fill="#FFFFFF" d="M46.009,50.801h3.867c-0.039-0.607-0.22-1.074-0.543-1.403c-0.323-0.328-0.757-0.492-1.302-0.492
	c-0.546,0-0.992,0.164-1.34,0.492C46.342,49.727,46.115,50.193,46.009,50.801 M51.379,51.711h-5.402
	c0.039,0.734,0.285,1.319,0.739,1.754c0.453,0.433,1.039,0.65,1.758,0.65c1.002,0,1.926-0.312,2.772-0.936v1.487
	c-0.468,0.312-0.931,0.533-1.39,0.668c-0.46,0.134-0.999,0.201-1.616,0.201c-0.846,0-1.531-0.176-2.054-0.526
	s-0.942-0.824-1.256-1.416c-0.315-0.592-0.471-1.279-0.471-2.059c0-1.169,0.33-2.119,0.993-2.852
	c0.663-0.731,1.522-1.096,2.581-1.096c1.018,0,1.832,0.355,2.438,1.068c0.606,0.713,0.91,1.666,0.91,2.863V51.711z"/>
<path fill="#FFFFFF" d="M53.968,47.736v1.762l0.083-0.133c0.735-1.186,1.47-1.779,2.204-1.779c0.573,0,1.172,0.29,1.796,0.87
	l-0.802,1.336c-0.528-0.501-1.019-0.752-1.469-0.752c-0.49,0-0.915,0.233-1.274,0.701c-0.359,0.468-0.538,1.021-0.538,1.663v4.016
	H52.44v-7.683H53.968z"/>
<path fill="#FFFFFF" d="M58.736,54.867v-1.635c0.428,0.299,0.867,0.543,1.315,0.729c0.448,0.187,0.825,0.278,1.131,0.278
	c0.317,0,0.589-0.076,0.817-0.233c0.229-0.156,0.342-0.343,0.342-0.559c0-0.223-0.073-0.407-0.221-0.557
	c-0.147-0.146-0.466-0.36-0.956-0.639c-0.98-0.545-1.621-1.012-1.924-1.397c-0.304-0.387-0.455-0.808-0.455-1.265
	c0-0.591,0.229-1.072,0.689-1.444c0.459-0.375,1.05-0.561,1.774-0.561c0.751,0,1.522,0.212,2.313,0.636v1.502
	c-0.902-0.545-1.639-0.817-2.212-0.817c-0.295,0-0.534,0.062-0.714,0.188c-0.181,0.125-0.271,0.292-0.271,0.498
	c0,0.18,0.082,0.348,0.246,0.509c0.164,0.162,0.451,0.357,0.864,0.585l0.542,0.309c1.281,0.724,1.921,1.525,1.921,2.403
	c0,0.631-0.247,1.146-0.739,1.55c-0.494,0.402-1.126,0.604-1.9,0.604c-0.457,0-0.863-0.049-1.219-0.146
	C59.724,55.308,59.275,55.129,58.736,54.867"/>
<path fill="#FFFFFF" d="M65.316,43.753h1.519v4.994c0.635-0.774,1.422-1.161,2.363-1.161c0.512,0,0.971,0.128,1.377,0.385
	c0.406,0.255,0.708,0.609,0.907,1.061c0.197,0.45,0.295,1.121,0.295,2.012v4.376h-1.519v-4.753c0-0.561-0.138-1.013-0.414-1.356
	c-0.275-0.341-0.638-0.514-1.09-0.514c-0.334,0-0.648,0.086-0.944,0.26c-0.294,0.173-0.621,0.459-0.977,0.86v5.503h-1.519V43.753z"
	/>
<path fill="#FFFFFF" d="M73.591,47.736h1.52v7.683h-1.52V47.736z M74.342,44.505c0.25,0,0.464,0.086,0.642,0.26
	c0.18,0.172,0.268,0.384,0.268,0.634c0,0.245-0.088,0.456-0.268,0.634c-0.178,0.179-0.393,0.267-0.642,0.267
	c-0.234,0-0.44-0.09-0.617-0.271c-0.18-0.182-0.268-0.39-0.268-0.63c0-0.235,0.088-0.441,0.268-0.623
	C73.902,44.596,74.108,44.505,74.342,44.505"/>
<path fill="#FFFFFF" d="M79.492,49.157h-1.075v4.725c0.466,0.24,0.956,0.358,1.467,0.358c0.709,0,1.292-0.247,1.745-0.742
	c0.453-0.494,0.679-1.134,0.679-1.912c0-0.502-0.108-0.943-0.32-1.327c-0.215-0.385-0.506-0.663-0.876-0.839
	C80.744,49.245,80.203,49.157,79.492,49.157 M76.864,59.335V47.736h2.661c1.362,0,2.422,0.34,3.181,1.02
	c0.759,0.679,1.139,1.627,1.139,2.847c0,1.151-0.357,2.098-1.071,2.839s-1.625,1.11-2.73,1.11c-0.49,0-1.031-0.107-1.625-0.325
	v4.108H76.864z"/>
<path fill="#FFFFFF" d="M18.73,63.845c0,0.429-0.074,0.843-0.221,1.25c-0.146,0.408-0.383,0.787-0.71,1.14
	c-0.327,0.352-0.769,0.637-1.325,0.856c-0.557,0.217-1.211,0.327-1.965,0.327h-2.277v4.321H8.759V60.223h5.75
	c0.754,0,1.409,0.111,1.965,0.332c0.557,0.223,0.998,0.511,1.325,0.864c0.327,0.354,0.563,0.739,0.71,1.156
	C18.656,62.99,18.73,63.413,18.73,63.845 M15.19,63.861c0-0.547-0.162-0.924-0.486-1.125c-0.324-0.202-0.904-0.304-1.741-0.304
	h-0.732v2.775h0.748c0.577,0,1.019-0.034,1.33-0.106c0.311-0.072,0.535-0.207,0.673-0.4C15.121,64.508,15.19,64.228,15.19,63.861"/>
<path fill="#FFFFFF" d="M29.017,67.501c0,0.843-0.183,1.593-0.548,2.252c-0.365,0.66-0.913,1.18-1.642,1.562
	c-0.728,0.382-1.616,0.574-2.663,0.574c-1.046,0-1.934-0.192-2.663-0.574c-0.728-0.383-1.274-0.902-1.636-1.562
	c-0.363-0.659-0.544-1.409-0.544-2.252c0-0.638,0.1-1.216,0.303-1.735c0.202-0.52,0.509-0.983,0.922-1.385
	c0.413-0.401,0.92-0.709,1.525-0.926c0.604-0.216,1.301-0.324,2.093-0.324c0.798,0,1.502,0.109,2.116,0.329
	c0.612,0.219,1.119,0.524,1.52,0.918c0.402,0.393,0.705,0.852,0.91,1.379C28.915,66.282,29.017,66.863,29.017,67.501 M25.867,67.501
	c0-0.671-0.146-1.194-0.436-1.574c-0.291-0.379-0.713-0.568-1.268-0.568c-0.548,0-0.968,0.189-1.258,0.568
	c-0.291,0.38-0.437,0.903-0.437,1.574c0,0.664,0.146,1.191,0.44,1.579c0.294,0.388,0.712,0.582,1.255,0.582
	c0.555,0,0.977-0.192,1.268-0.578C25.722,68.699,25.867,68.171,25.867,67.501"/>
<path fill="#FFFFFF" d="M38.007,63.738l-1.105,2.998c-0.455-0.432-0.914-0.646-1.379-0.646c-0.421,0-0.785,0.141-1.093,0.428
	c-0.307,0.285-0.601,0.812-0.885,1.582v3.64h-2.991v-8.458h2.991v2.042c0.188-0.504,0.521-0.994,0.998-1.474
	c0.476-0.479,1.036-0.719,1.679-0.719c0.338,0,0.632,0.051,0.884,0.15C37.358,63.381,37.658,63.532,38.007,63.738"/>
<path fill="#FFFFFF" d="M45.394,71.249c-0.31,0.148-0.737,0.293-1.283,0.431c-0.546,0.14-1.068,0.21-1.566,0.21
	c-2.155,0-3.233-1.054-3.233-3.159v-3.372h-1.354v-0.523l4.013-4.089h0.34v2.535h2.858v2.077h-2.858v2.708
	c0,0.314,0.021,0.57,0.059,0.765c0.038,0.194,0.147,0.355,0.328,0.485s0.454,0.196,0.819,0.196c0.477,0,1.102-0.199,1.877-0.6
	V71.249z"/>
<path fill="#FFFFFF" d="M55.615,71.739h-2.992v-1.206c-0.422,0.454-0.866,0.794-1.329,1.02c-0.463,0.223-1.021,0.337-1.67,0.337
	c-1.276,0-2.103-0.375-2.478-1.118c-0.375-0.745-0.564-1.587-0.564-2.521v-4.969h2.992v4.568c0,0.459,0.077,0.864,0.229,1.21
	c0.152,0.346,0.486,0.519,0.996,0.519c0.439,0,0.787-0.124,1.042-0.373c0.255-0.251,0.516-0.568,0.783-0.955v-4.969h2.992V71.739z"
	/>
<path fill="#FFFFFF" d="M66.042,65.085h-1.479c0.521,0.453,0.781,1.01,0.781,1.669c0,0.35-0.073,0.685-0.221,1.004
	c-0.146,0.322-0.363,0.607-0.647,0.857c-0.286,0.248-0.637,0.452-1.056,0.61c-0.418,0.156-0.896,0.252-1.433,0.287
	c-0.692,0.027-1.039,0.212-1.039,0.555c0,0.134,0.044,0.23,0.132,0.292c0.089,0.061,0.229,0.108,0.42,0.137
	c0.191,0.031,0.514,0.065,0.969,0.104c0.515,0.044,0.993,0.122,1.437,0.233c0.442,0.109,0.855,0.343,1.237,0.699
	c0.383,0.352,0.573,0.859,0.573,1.52c0,0.525-0.142,0.991-0.428,1.395c-0.286,0.404-0.746,0.721-1.383,0.948
	c-0.638,0.227-1.479,0.34-2.526,0.34c-1.507,0-2.612-0.203-3.32-0.606c-0.706-0.404-1.059-0.945-1.059-1.62
	c0-0.183,0.045-0.394,0.136-0.632c0.092-0.239,0.286-0.467,0.582-0.69c0.297-0.221,0.728-0.37,1.293-0.447
	c-0.199-0.071-0.372-0.211-0.515-0.421c-0.145-0.207-0.217-0.425-0.217-0.651c0-0.293,0.101-0.585,0.305-0.873
	c0.201-0.288,0.53-0.473,0.984-0.557c-0.632-0.166-1.178-0.479-1.638-0.938c-0.46-0.459-0.69-1.055-0.69-1.786
	c0-0.555,0.107-1.039,0.32-1.454c0.213-0.415,0.508-0.753,0.885-1.015c0.377-0.26,0.815-0.452,1.313-0.576
	c0.498-0.125,1.044-0.187,1.637-0.187h4.645V65.085z M63.333,73.318c0-0.371-0.198-0.611-0.594-0.719
	c-0.397-0.108-0.805-0.163-1.225-0.163c-0.693,0-1.192,0.073-1.5,0.221c-0.308,0.147-0.46,0.381-0.46,0.702
	c0,0.631,0.636,0.946,1.911,0.946c0.57,0,1.024-0.081,1.362-0.245C63.165,73.897,63.333,73.65,63.333,73.318 M62.735,66.513
	c0-0.428-0.145-0.77-0.437-1.026c-0.291-0.257-0.616-0.387-0.976-0.387c-0.459,0-0.821,0.155-1.084,0.466
	c-0.264,0.31-0.395,0.638-0.395,0.98c0,0.238,0.057,0.46,0.17,0.663c0.114,0.207,0.273,0.37,0.482,0.495
	c0.208,0.126,0.455,0.188,0.743,0.188c0.432,0,0.79-0.137,1.073-0.407C62.594,67.213,62.735,66.888,62.735,66.513"/>
<path fill="#FFFFFF" d="M76.129,71.315c-0.437,0.172-0.841,0.31-1.212,0.415c-0.372,0.105-0.818,0.158-1.338,0.158
	c-0.493,0-0.836-0.087-1.03-0.262c-0.194-0.176-0.333-0.387-0.417-0.636c-0.321,0.262-0.678,0.476-1.071,0.644
	c-0.393,0.168-0.908,0.254-1.545,0.254c-0.615,0-1.112-0.105-1.491-0.319c-0.379-0.214-0.646-0.482-0.799-0.808
	c-0.152-0.322-0.228-0.658-0.228-1.001c0-0.52,0.132-0.95,0.395-1.29c0.264-0.342,0.617-0.621,1.06-0.837
	c0.444-0.216,1.031-0.439,1.762-0.674c0.415-0.133,0.729-0.233,0.943-0.301c0.214-0.071,0.373-0.125,0.479-0.163
	c0.104-0.038,0.215-0.089,0.333-0.151c0-0.407-0.084-0.729-0.25-0.962c-0.165-0.232-0.526-0.351-1.079-0.351
	c-0.655,0-1.261,0.145-1.82,0.433s-1.072,0.661-1.537,1.113v-2.293c0.371-0.265,0.773-0.482,1.205-0.651
	c0.433-0.169,0.883-0.294,1.354-0.377c0.471-0.085,0.949-0.126,1.429-0.126c1.224,0,2.146,0.236,2.763,0.709
	c0.618,0.476,0.926,1.127,0.926,1.958v3.267c0,0.31,0.029,0.54,0.087,0.691c0.059,0.153,0.167,0.229,0.32,0.229
	c0.188,0,0.443-0.08,0.764-0.241V71.315z M71.967,69.695v-2.002c-0.71,0.286-1.228,0.547-1.555,0.777
	c-0.325,0.229-0.49,0.54-0.49,0.934c0,0.281,0.083,0.498,0.246,0.648c0.164,0.148,0.354,0.224,0.57,0.224
	c0.204,0,0.408-0.056,0.611-0.171C71.55,69.993,71.756,69.855,71.967,69.695"/>
<rect x="77.218" y="60.223" fill="#FFFFFF" width="2.999" height="11.517"/>
</svg>
