<?xml version="1.0" encoding="utf-8"?>
<!-- Generator: Adobe Illustrator 16.0.0, SVG Export Plug-In . SVG Version: 6.00 Build 0)  -->
<!DOCTYPE svg PUBLIC "-//W3C//DTD SVG 1.1//EN" "http://www.w3.org/Graphics/SVG/1.1/DTD/svg11.dtd">
<svg version="1.1" id="Layer_1" xmlns="http://www.w3.org/2000/svg" xmlns:xlink="http://www.w3.org/1999/xlink" x="0px" y="0px"
	 width="404px" height="402px" viewBox="0 0 404 402" enable-background="new 0 0 404 402" xml:space="preserve">
<path fill="#6D6D6D" d="M391.585,376.69L287.331,272.438c24.129-27.78,38.783-63.998,38.783-103.597
	c0-87.234-70.973-158.211-158.211-158.211C80.664,10.63,9.695,81.611,9.695,168.846c0,87.234,70.969,158.206,158.208,158.206
	c39.594,0,75.811-14.652,103.586-38.783l104.264,104.26c2.187,2.187,5.053,3.278,7.92,3.278c2.863,0,5.73-1.093,7.912-3.278
	C395.962,388.155,395.962,381.062,391.585,376.69z M32.096,168.841c0-74.888,60.924-135.811,135.808-135.811
	c74.888,0,135.811,60.928,135.811,135.811c0,74.884-60.923,135.808-135.811,135.808C93.02,304.647,32.096,243.725,32.096,168.841z"
	/>
</svg>
