<?xml version="1.0" encoding="utf-8"?>
<!-- Generator: Adobe Illustrator 16.0.0, SVG Export Plug-In . SVG Version: 6.00 Build 0)  -->
<!DOCTYPE svg PUBLIC "-//W3C//DTD SVG 1.1//EN" "http://www.w3.org/Graphics/SVG/1.1/DTD/svg11.dtd">
<svg version="1.1" id="Layer_1" xmlns="http://www.w3.org/2000/svg" xmlns:xlink="http://www.w3.org/1999/xlink" x="0px" y="0px"
	 width="232.402px" height="229.9px" viewBox="0 0 232.402 229.9" enable-background="new 0 0 232.402 229.9" xml:space="preserve">
<title>close</title>
<path fill="#6D6D6D" d="M223.215,127.084c-7.125,59.121-60.827,101.272-119.947,94.147c-31.562-3.805-59.835-21.34-77.268-47.925
	v15.698c0,4.972-4.028,9-9,9c-4.971,0-9-4.028-9-9v-30c0.015-11.592,9.408-20.984,21-21h30c4.972,0,9,4.029,9,9c0,4.972-4.028,9-9,9
	l0,0H36.58c23.137,43.927,77.502,60.778,121.429,37.642c26.104-13.749,43.798-39.432,47.348-68.72
	c0.596-4.933,5.076-8.446,10.008-7.852S223.811,122.152,223.215,127.084L223.215,127.084L223.215,127.084z M215,30.006
	c-4.971,0.001-8.999,4.03-9,9v15.698C173.346,4.906,106.507-8.992,56.709,23.662c-26.583,17.431-44.12,45.705-47.923,77.267
	c-0.597,4.934,2.917,9.415,7.852,10.014h0.001c0.361,0.042,0.726,0.062,1.09,0.063c4.548-0.006,8.376-3.405,8.918-7.922
	c5.973-49.286,50.77-84.397,100.057-78.425c29.287,3.549,54.97,21.244,68.72,47.347H173c-4.971,0-9,4.029-9,9c0,4.972,4.029,9,9,9
	h30c11.592-0.015,20.986-9.407,21-21v-30C223.999,34.035,219.971,30.007,215,30.006z"/>
</svg>
